Coordinates
version=1
nRows=9
nColumns=63
inDegrees=yes

Units are S.I. units (second, meters, Newtons, ...)
If the header above contains a line with 'inDegrees', this indicates whether rotational values are in degrees (yes) or radians (no).

endheader
time	pelvis_tilt	pelvis_list	pelvis_rotation	pelvis_tx	pelvis_ty	pelvis_tz	hip_flexion_r	hip_adduction_r	hip_rotation_r	knee_angle_r	knee_angle_r_beta	ankle_angle_r	subtalar_angle_r	mtp_angle_r	hip_flexion_l	hip_adduction_l	hip_rotation_l	knee_angle_l	knee_angle_l_beta	ankle_angle_l	subtalar_angle_l	mtp_angle_l	L5_S1_Flex_Ext	L5_S1_Lat_Bending	L5_S1_axial_rotation	L4_L5_Flex_Ext	L4_L5_Lat_Bending	L4_L5_axial_rotation	L3_L4_Flex_Ext	L3_L4_Lat_Bending	L3_L4_axial_rotation	L2_L3_Flex_Ext	L2_L3_Lat_Bending	L2_L3_axial_rotation	L1_L2_Flex_Ext	L1_L2_Lat_Bending	L1_L2_axial_rotation	L1_T12_Flex_Ext	L1_T12_Lat_Bending	L1_T12_axial_rotation	Abs_r3	Abs_r2	Abs_r1	Abs_t1	Abs_t2	neck_flexion	neck_bending	neck_rotation	arm_flex_r	arm_add_r	arm_rot_r	elbow_flex_r	pro_sup_r	wrist_flex_r	wrist_dev_r	arm_flex_l	arm_add_l	arm_rot_l	elbow_flex_l	pro_sup_l	wrist_flex_l	wrist_dev_l
0.000000	1.950429	-2.258230	99.535685	0.265293	0.789286	0.578545	-7.187278	1.946913	7.879344	1.050722	0.018339	24.775253	-10.883969	0.000000	-3.008350	-3.923996	22.392794	2.653796	0.046317	28.634163	-7.040324	0.000000	0.256289	0.160375	-1.969422	0.475955	0.213298	-2.092511	0.421058	0.389935	-2.092511	0.292913	0.389935	-1.723244	0.237990	0.327036	-1.600155	0.146444	0.248420	-1.477066	1.830648	1.814190	-10.953332	0.000000	0.000000	15.374951	5.001489	3.279131	30.677830	-6.684321	110.562854	38.722052	89.069981	-19.766111	-5.056770	15.539509	-11.683478	61.044962	47.277262	69.510957	1.892848	-5.596459
0.016949	2.136231	-2.286299	99.809287	0.264422	0.789540	0.578841	-7.113664	2.146633	7.559645	0.921683	0.016086	24.953038	-10.600741	0.000000	-1.998069	-4.147334	18.205779	4.508349	0.078686	30.116618	-1.283097	0.000000	0.257520	0.189724	-1.988766	0.478241	0.252333	-2.113064	0.423080	0.461295	-2.113064	0.294320	0.461295	-1.740171	0.239133	0.386885	-1.615873	0.147147	0.293882	-1.491575	1.839443	2.146195	-11.060922	0.000000	0.000000	15.389934	4.359047	2.632649	29.706976	-7.687978	106.977791	39.560330	89.038924	-18.444732	-4.924023	15.661044	-11.452008	61.393380	47.073054	67.814711	2.279948	-5.576230
0.033898	2.279218	-2.299462	100.037379	0.263767	0.789802	0.579039	-7.059391	2.306427	7.256750	0.826944	0.014433	25.121927	-10.312348	0.000000	-1.221478	-4.328627	14.846844	5.927646	0.103457	31.295518	3.347763	0.000000	0.258119	0.210750	-2.003763	0.479353	0.280297	-2.128998	0.424064	0.512417	-2.128998	0.295004	0.512417	-1.753293	0.239689	0.429761	-1.628058	0.147489	0.326451	-1.502822	1.843718	2.384042	-11.144330	0.000000	0.000000	15.406037	3.905374	2.097687	28.824323	-8.521377	103.858000	40.274742	88.998488	-17.298590	-4.853251	15.695514	-11.288060	61.616136	46.954208	66.505389	2.584764	-5.580394
0.050847	2.383883	-2.299585	100.223339	0.263307	0.790068	0.579150	-7.022043	2.430213	6.968372	0.763101	0.013319	25.282839	-10.017339	0.000000	-0.656801	-4.471836	12.250090	6.952536	0.121345	32.194538	6.941553	0.000000	0.258159	0.224349	-2.014682	0.479427	0.298384	-2.140600	0.424129	0.545482	-2.140600	0.295050	0.545482	-1.762847	0.239726	0.457492	-1.636929	0.147512	0.347516	-1.511012	1.844004	2.537880	-11.205057	0.000000	0.000000	15.424249	3.621300	1.664453	28.024813	-9.199799	101.166236	40.876191	88.948744	-16.311043	-4.836873	15.651584	-11.184528	61.722268	46.911803	65.546928	2.815570	-5.605276
0.067797	2.454723	-2.288536	100.370549	0.263020	0.790334	0.579187	-6.999208	2.521910	6.692222	0.726749	0.012684	25.436690	-9.714263	0.000000	-0.282260	-4.580919	10.349619	7.623867	0.133062	32.837357	9.587566	0.000000	0.257714	0.231419	-2.021793	0.478601	0.307787	-2.148155	0.423399	0.562672	-2.148155	0.294542	0.562672	-1.769069	0.239313	0.471910	-1.642707	0.147258	0.358468	-1.516345	1.840827	2.617858	-11.244604	0.000000	0.000000	15.445561	3.487658	1.323154	27.303385	-9.738524	98.865256	41.375578	88.889766	-15.465452	-4.867313	15.537923	-11.134306	61.720811	46.936918	64.903266	2.980636	-5.647200
0.084746	2.496230	-2.268183	100.482389	0.262887	0.790598	0.579161	-6.988471	2.585434	6.426014	0.714484	0.012470	25.584400	-9.401671	0.000000	-0.076078	-4.659833	9.079533	7.982490	0.139321	33.247649	11.375098	0.000000	0.256859	0.232857	-2.025365	0.477012	0.309700	-2.151950	0.421993	0.566169	-2.151950	0.293564	0.566169	-1.772194	0.238519	0.474842	-1.645609	0.146769	0.360696	-1.519024	1.834715	2.634125	-11.264472	0.000000	0.000000	15.470963	3.485278	1.063997	26.654981	-10.152830	96.917817	41.783808	88.821627	-14.745176	-4.936992	15.363198	-11.130286	61.620804	47.020634	64.538342	3.088237	-5.702489
0.101695	2.512901	-2.240393	100.562239	0.262885	0.790857	0.579083	-6.987419	2.624703	6.167462	0.722900	0.012617	25.726887	-9.078112	0.000000	-0.016479	-4.712538	8.373935	8.069253	0.140835	33.449092	12.393446	0.000000	0.255666	0.229560	-2.025668	0.474797	0.305315	-2.152273	0.420033	0.558153	-2.152273	0.292201	0.558153	-1.772460	0.237411	0.468119	-1.645856	0.146087	0.355589	-1.519251	1.826196	2.596832	-11.266159	0.000000	0.000000	15.501443	3.594993	0.877190	26.074542	-10.457999	95.286676	42.111783	88.744399	-14.133575	-5.038331	15.136077	-11.165364	61.431282	47.154029	64.416094	3.146643	-5.767470
0.118644	2.509230	-2.207035	100.613478	0.262994	0.791108	0.578965	-6.993637	2.643636	5.914277	0.748593	0.013065	25.865069	-8.742136	0.000000	-0.081685	-4.742993	8.166927	7.925005	0.138317	33.465362	12.731903	0.000000	0.254210	0.222426	-2.022973	0.472094	0.295827	-2.149409	0.417642	0.540807	-2.149409	0.290537	0.540807	-1.770101	0.236060	0.453571	-1.643665	0.145256	0.344538	-1.517230	1.815798	2.516127	-11.251168	0.000000	0.000000	15.537994	3.797633	0.752940	25.557008	-10.669310	93.934589	42.370404	88.658155	-13.614007	-5.163754	14.865228	-11.232431	61.161282	47.328183	64.500460	3.164128	-5.838464
0.135593	2.489711	-2.169974	100.639488	0.263193	0.791347	0.578819	-7.004711	2.646149	5.664174	0.788158	0.013756	25.999864	-8.392293	0.000000	-0.249920	-4.755155	8.392610	7.590596	0.132481	33.320136	12.479765	0.000000	0.252565	0.212351	-2.017548	0.469039	0.282427	-2.143645	0.414940	0.516311	-2.143645	0.288657	0.516311	-1.765355	0.234532	0.433027	-1.639258	0.144316	0.328932	-1.513161	1.804049	2.402160	-11.220999	0.000000	0.000000	15.581604	4.074031	0.681455	25.097320	-10.802041	92.824313	42.570576	88.562968	-13.169834	-5.305680	14.559316	-11.324382	60.819841	47.534175	64.755379	3.148963	-5.911798
